<svg xmlns="http://www.w3.org/2000/svg" viewBox="0 0 800 500" role="img" aria-label="Operations console admin UI">
  <defs>
    <linearGradient id="op-bg" x1="0" y1="0" x2="1" y2="1"><stop offset="0" stop-color="#161226"/><stop offset="1" stop-color="#0c0a16"/></linearGradient>
    <linearGradient id="op-ac" x1="0" y1="0" x2="1" y2="0"><stop offset="0" stop-color="#fb7185"/><stop offset="1" stop-color="#f472b6"/></linearGradient>
  </defs>
  <rect width="800" height="500" rx="16" fill="url(#op-bg)"/>
  <rect x="0" y="0" width="800" height="40" rx="16" fill="#1f1a33"/><rect x="0" y="24" width="800" height="16" fill="#1f1a33"/>
  <circle cx="22" cy="20" r="5" fill="#ff5f57"/><circle cx="40" cy="20" r="5" fill="#febc2e"/><circle cx="58" cy="20" r="5" fill="#28c840"/>
  <rect x="300" y="12" width="200" height="16" rx="8" fill="#0c0a16"/><text x="400" y="24" font-family="monospace" font-size="10" fill="#857c98" text-anchor="middle">ops.ramis.me</text>
  <!-- sidebar -->
  <rect x="16" y="56" width="60" height="428" rx="12" fill="#ffffff08"/>
  <rect x="32" y="76" width="28" height="28" rx="8" fill="url(#op-ac)"/>
  <g fill="#857c98"><rect x="34" y="120" width="24" height="6" rx="3"/><rect x="34" y="138" width="24" height="6" rx="3"/><rect x="34" y="156" width="24" height="6" rx="3"/></g>
  <!-- header -->
  <text x="92" y="80" font-family="sans-serif" font-size="18" font-weight="700" fill="#fff">Orders &amp; fulfilment</text>
  <rect x="600" y="62" width="184" height="30" rx="8" fill="#0c0a16" stroke="#ffffff1a"/><text x="616" y="82" font-family="sans-serif" font-size="11" fill="#857c98">Search order #…</text>
  <!-- KPI strip -->
  <g font-family="sans-serif">
    <rect x="92" y="104" width="160" height="64" rx="11" fill="#ffffff0a"/><text x="108" y="128" font-size="10" fill="#857c98">Open orders</text><text x="108" y="154" font-size="20" font-weight="700" fill="#fff">1,284</text>
    <rect x="262" y="104" width="160" height="64" rx="11" fill="#ffffff0a"/><text x="278" y="128" font-size="10" fill="#857c98">SLA at risk</text><text x="278" y="154" font-size="20" font-weight="700" fill="#fb7185">17</text>
    <rect x="432" y="104" width="160" height="64" rx="11" fill="#ffffff0a"/><text x="448" y="128" font-size="10" fill="#857c98">Refunds today</text><text x="448" y="154" font-size="20" font-weight="700" fill="#fff">42</text>
    <rect x="602" y="104" width="182" height="64" rx="11" fill="#ffffff0a"/><text x="618" y="128" font-size="10" fill="#857c98">Avg handle time</text><text x="618" y="154" font-size="20" font-weight="700" fill="#34d399">3.2m</text>
  </g>
  <!-- table -->
  <rect x="92" y="182" width="480" height="302" rx="12" fill="#ffffff0a" stroke="#ffffff14"/>
  <g font-family="monospace" font-size="11">
    <text x="110" y="210" fill="#857c98">order</text><text x="250" y="210" fill="#857c98">customer</text><text x="400" y="210" fill="#857c98">status</text><text x="510" y="210" fill="#857c98">total</text>
    <line x1="108" y1="220" x2="556" y2="220" stroke="#ffffff14"/>
  </g>
  <g font-family="sans-serif" font-size="11" fill="#cfc6dd">
    <rect x="100" y="228" width="464" height="34" rx="8" fill="#ffffff08"/>
    <text x="110" y="250">#48201</text><text x="250" y="250">A. Whitfield</text><text x="510" y="250">£128</text>
    <rect x="400" y="237" width="70" height="16" rx="8" fill="#34d39933"/><text x="435" y="249" font-size="9" fill="#34d399" text-anchor="middle">shipped</text>
    <text x="110" y="288">#48202</text><text x="250" y="288">M. Okoye</text><text x="510" y="288">£64</text>
    <rect x="400" y="275" width="70" height="16" rx="8" fill="#fbbf2433"/><text x="435" y="287" font-size="9" fill="#fbbf24" text-anchor="middle">picking</text>
    <text x="110" y="326">#48203</text><text x="250" y="326">S. Rahman</text><text x="510" y="326">£312</text>
    <rect x="400" y="313" width="70" height="16" rx="8" fill="#fb718533"/><text x="435" y="325" font-size="9" fill="#fb7185" text-anchor="middle">SLA risk</text>
    <text x="110" y="364">#48204</text><text x="250" y="364">L. Tan</text><text x="510" y="364">£89</text>
    <rect x="400" y="351" width="70" height="16" rx="8" fill="#34d39933"/><text x="435" y="363" font-size="9" fill="#34d399" text-anchor="middle">shipped</text>
    <text x="110" y="402">#48205</text><text x="250" y="402">R. Mensah</text><text x="510" y="402">£540</text>
    <rect x="400" y="389" width="70" height="16" rx="8" fill="#fbbf2433"/><text x="435" y="401" font-size="9" fill="#fbbf24" text-anchor="middle">packing</text>
  </g>
  <rect x="100" y="430" width="120" height="34" rx="9" fill="url(#op-ac)"/><text x="160" y="452" font-family="sans-serif" font-size="12" font-weight="700" fill="#161226" text-anchor="middle">Bulk action</text>
  <!-- detail panel -->
  <rect x="584" y="182" width="200" height="302" rx="12" fill="#ffffff0a" stroke="#ffffff14"/>
  <text x="600" y="210" font-family="sans-serif" font-size="13" font-weight="700" fill="#fff">#48203 · timeline</text>
  <g><circle cx="606" cy="240" r="5" fill="#34d399"/><circle cx="606" cy="276" r="5" fill="#34d399"/><circle cx="606" cy="312" r="5" fill="#fbbf24"/><circle cx="606" cy="348" r="5" fill="#ffffff33"/>
  <line x1="606" y1="245" x2="606" y2="343" stroke="#ffffff22"/></g>
  <g font-family="sans-serif" font-size="10" fill="#b3aac4"><text x="622" y="244">Order placed</text><text x="622" y="280">Payment captured</text><text x="622" y="316">In fulfilment</text><text x="622" y="352">Out for delivery</text></g>
  <rect x="600" y="372" width="168" height="40" rx="10" fill="#fb718522"/><text x="684" y="397" font-family="sans-serif" font-size="11" fill="#fb7185" text-anchor="middle">⚠ confirm refund</text>
  <rect x="600" y="424" width="168" height="40" rx="10" fill="#34d39922"/><text x="684" y="449" font-family="sans-serif" font-size="11" fill="#34d399" text-anchor="middle">role-scoped · audited</text>
</svg>
